<?xml version="1.0" encoding="UTF-8" standalone="no"?>
<svg
   viewBox="0 0 500 372.56"
   version="1.1"
   id="svg844"
   sodipodi:docname="code-typing-rafiki_cropped.svg"
   width="500"
   height="372.56"
   inkscape:version="1.1.1 (3bf5ae0d25, 2021-09-20)"
   xmlns:inkscape="http://www.inkscape.org/namespaces/inkscape"
   xmlns:sodipodi="http://sodipodi.sourceforge.net/DTD/sodipodi-0.dtd"
   xmlns="http://www.w3.org/2000/svg"
   xmlns:svg="http://www.w3.org/2000/svg">
  <defs
     id="defs848" />
  <sodipodi:namedview
     id="namedview846"
     pagecolor="#ffffff"
     bordercolor="#666666"
     borderopacity="1.0"
     inkscape:pageshadow="2"
     inkscape:pageopacity="0.0"
     inkscape:pagecheckerboard="0"
     showgrid="false"
     fit-margin-top="0"
     fit-margin-left="0"
     fit-margin-right="0"
     fit-margin-bottom="0"
     inkscape:zoom="1.06"
     inkscape:cx="347.64151"
     inkscape:cy="182.07547"
     inkscape:window-width="1366"
     inkscape:window-height="700"
     inkscape:window-x="0"
     inkscape:window-y="0"
     inkscape:window-maximized="1"
     inkscape:current-layer="svg844" />
  <g
     id="freepik--background-complete--inject-3"
     transform="translate(0,-55)">
    <rect
       y="382.39999"
       width="500"
       height="0.25"
       style="fill:#ebebeb"
       id="rect2"
       x="0" />
    <rect
       x="416.78"
       y="398.48999"
       width="33.119999"
       height="0.25"
       style="fill:#ebebeb"
       id="rect4" />
    <rect
       x="322.53"
       y="401.20999"
       width="8.6899996"
       height="0.25"
       style="fill:#ebebeb"
       id="rect6" />
    <rect
       x="396.59"
       y="389.20999"
       width="19.190001"
       height="0.25"
       style="fill:#ebebeb"
       id="rect8" />
    <rect
       x="52.459999"
       y="390.89001"
       width="43.189999"
       height="0.25"
       style="fill:#ebebeb"
       id="rect10" />
    <rect
       x="104.56"
       y="390.89001"
       width="6.3299999"
       height="0.25"
       style="fill:#ebebeb"
       id="rect12" />
    <rect
       x="131.47"
       y="395.10999"
       width="93.68"
       height="0.25"
       style="fill:#ebebeb"
       id="rect14" />
    <path
       d="M 237,337.8 H 43.91 a 5.71,5.71 0 0 1 -5.7,-5.71 V 60.66 A 5.71,5.71 0 0 1 43.91,55 H 237 a 5.71,5.71 0 0 1 5.71,5.71 V 332.09 A 5.71,5.71 0 0 1 237,337.8 Z M 43.91,55.2 a 5.46,5.46 0 0 0 -5.45,5.46 v 271.43 a 5.46,5.46 0 0 0 5.45,5.46 H 237 a 5.47,5.47 0 0 0 5.46,-5.46 V 60.66 A 5.47,5.47 0 0 0 237,55.2 Z"
       style="fill:#ebebeb"
       id="path16" />
    <path
       d="m 453.31,337.8 h -193.1 a 5.72,5.72 0 0 1 -5.71,-5.71 V 60.66 A 5.72,5.72 0 0 1 260.21,55 h 193.1 a 5.71,5.71 0 0 1 5.69,5.66 v 271.43 a 5.71,5.71 0 0 1 -5.69,5.71 z M 260.21,55.2 a 5.47,5.47 0 0 0 -5.46,5.46 v 271.43 a 5.47,5.47 0 0 0 5.46,5.46 h 193.1 a 5.47,5.47 0 0 0 5.46,-5.46 V 60.66 a 5.47,5.47 0 0 0 -5.46,-5.46 z"
       style="fill:#ebebeb"
       id="path18" />
    <rect
       x="387.64999"
       y="264.19"
       width="27.719999"
       height="27.719999"
       style="fill:#e0e0e0"
       id="rect20" />
    <rect
       x="384.69"
       y="268.20001"
       width="33.639999"
       height="19.42"
       style="fill:#e0e0e0"
       id="rect22" />
    <rect
       x="394.23999"
       y="252.03999"
       width="14.54"
       height="8.9399996"
       style="fill:#e0e0e0"
       id="rect24" />
    <rect
       x="392.17001"
       y="253.92"
       width="18.68"
       height="4.79"
       style="fill:#e0e0e0"
       id="rect26" />
    <rect
       x="418.26001"
       y="264.19"
       width="3.75"
       height="3.75"
       style="fill:#e0e0e0"
       id="rect28" />
    <rect
       x="422.12"
       y="253.92"
       width="3.02"
       height="10.27"
       style="fill:#e0e0e0"
       id="rect30" />
    <rect
       x="418.17999"
       y="275.62"
       width="3.8299999"
       height="3.8299999"
       style="fill:#e0e0e0"
       id="rect32" />
    <rect
       x="422.01001"
       y="271.66"
       width="3.96"
       height="3.96"
       style="fill:#e0e0e0"
       id="rect34" />
    <rect
       x="425.97"
       y="266.07001"
       width="3.8699999"
       height="5.5900002"
       style="fill:#e0e0e0"
       id="rect36" />
    <rect
       x="381.01001"
       y="264.19"
       width="3.75"
       height="3.75"
       transform="rotate(180,382.885,266.07)"
       style="fill:#e0e0e0"
       id="rect38" />
    <rect
       x="377.87"
       y="253.92"
       width="3.02"
       height="10.27"
       transform="rotate(180,379.385,259.06)"
       style="fill:#e0e0e0"
       id="rect40" />
    <rect
       x="381.01001"
       y="275.62"
       width="3.8299999"
       height="3.8299999"
       transform="rotate(180,382.925,277.535)"
       style="fill:#e0e0e0"
       id="rect42" />
    <rect
       x="377.04999"
       y="271.66"
       width="3.96"
       height="3.96"
       transform="rotate(180,379.03,273.645)"
       style="fill:#e0e0e0"
       id="rect44" />
    <rect
       x="373.17999"
       y="266.07001"
       width="3.8699999"
       height="5.5900002"
       transform="rotate(180,375.12,268.87)"
       style="fill:#e0e0e0"
       id="rect46" />
    <rect
       x="384"
       y="291.76001"
       width="3.75"
       height="3.75"
       transform="rotate(180,385.875,293.635)"
       style="fill:#e0e0e0"
       id="rect48" />
    <rect
       x="380.85999"
       y="295.51001"
       width="3.02"
       height="10.27"
       transform="rotate(180,382.375,300.65)"
       style="fill:#e0e0e0"
       id="rect50" />
    <rect
       x="380.97"
       y="281.66"
       width="3.8299999"
       height="3.8299999"
       transform="rotate(180,382.885,283.575)"
       style="fill:#e0e0e0"
       id="rect52" />
    <rect
       x="377.01999"
       y="285.48999"
       width="3.96"
       height="3.96"
       transform="rotate(180,378.995,287.465)"
       style="fill:#e0e0e0"
       id="rect54" />
    <rect
       x="373.14999"
       y="289.44"
       width="3.8699999"
       height="5.5900002"
       transform="rotate(180,375.085,292.24)"
       style="fill:#e0e0e0"
       id="rect56" />
    <rect
       x="415.34"
       y="291.76001"
       width="3.75"
       height="3.75"
       style="fill:#e0e0e0"
       id="rect58" />
    <rect
       x="419.20001"
       y="295.51001"
       width="3.02"
       height="10.27"
       style="fill:#e0e0e0"
       id="rect60" />
    <rect
       x="418.14999"
       y="281.66"
       width="3.8299999"
       height="3.8299999"
       style="fill:#e0e0e0"
       id="rect62" />
    <rect
       x="421.97"
       y="285.48999"
       width="3.96"
       height="3.96"
       style="fill:#e0e0e0"
       id="rect64" />
    <rect
       x="426"
       y="289.44"
       width="3.8699999"
       height="5.5900002"
       style="fill:#e0e0e0"
       id="rect66" />
    <rect
       x="221.98"
       y="158.25"
       width="27.719999"
       height="27.719999"
       style="fill:#e0e0e0"
       id="rect68" />
    <rect
       x="219.03"
       y="162.25"
       width="33.639999"
       height="19.42"
       style="fill:#e0e0e0"
       id="rect70" />
    <rect
       x="228.57001"
       y="146.09"
       width="14.54"
       height="8.9399996"
       style="fill:#e0e0e0"
       id="rect72" />
    <rect
       x="226.5"
       y="147.98"
       width="18.68"
       height="4.79"
       style="fill:#e0e0e0"
       id="rect74" />
    <rect
       x="252.59"
       y="158.25"
       width="3.75"
       height="3.75"
       style="fill:#e0e0e0"
       id="rect76" />
    <rect
       x="256.45999"
       y="147.98"
       width="3.02"
       height="10.27"
       style="fill:#e0e0e0"
       id="rect78" />
    <rect
       x="252.52"
       y="169.67999"
       width="3.8299999"
       height="3.8299999"
       style="fill:#e0e0e0"
       id="rect80" />
    <rect
       x="256.34"
       y="165.72"
       width="3.96"
       height="3.96"
       style="fill:#e0e0e0"
       id="rect82" />
    <rect
       x="260.29999"
       y="160.13"
       width="3.8699999"
       height="5.5900002"
       style="fill:#e0e0e0"
       id="rect84" />
    <rect
       x="215.34"
       y="158.25"
       width="3.75"
       height="3.75"
       transform="rotate(180,217.22,160.125)"
       style="fill:#e0e0e0"
       id="rect86" />
    <rect
       x="212.21001"
       y="147.98"
       width="3.02"
       height="10.27"
       transform="rotate(180,213.72,153.115)"
       style="fill:#e0e0e0"
       id="rect88" />
    <rect
       x="215.34"
       y="169.67999"
       width="3.8299999"
       height="3.8299999"
       transform="rotate(180,217.255,171.59)"
       style="fill:#e0e0e0"
       id="rect90" />
    <rect
       x="211.39"
       y="165.72"
       width="3.96"
       height="3.96"
       transform="rotate(180,213.365,167.7)"
       style="fill:#e0e0e0"
       id="rect92" />
    <rect
       x="207.52"
       y="160.13"
       width="3.8699999"
       height="5.5900002"
       transform="rotate(180,209.455,162.925)"
       style="fill:#e0e0e0"
       id="rect94" />
    <rect
       x="218.33"
       y="185.82001"
       width="3.75"
       height="3.75"
       transform="rotate(180,220.21,187.69)"
       style="fill:#e0e0e0"
       id="rect96" />
    <rect
       x="215.19"
       y="189.57001"
       width="3.02"
       height="10.27"
       transform="rotate(180,216.705,194.705)"
       style="fill:#e0e0e0"
       id="rect98" />
    <rect
       x="215.31"
       y="175.72"
       width="3.8299999"
       height="3.8299999"
       transform="rotate(180,217.22,177.63)"
       style="fill:#e0e0e0"
       id="rect100" />
    <rect
       x="211.35001"
       y="179.53999"
       width="3.96"
       height="3.96"
       transform="rotate(180,213.33,181.52)"
       style="fill:#e0e0e0"
       id="rect102" />
    <rect
       x="207.48"
       y="183.5"
       width="3.8699999"
       height="5.5900002"
       transform="rotate(180,209.415,186.295)"
       style="fill:#e0e0e0"
       id="rect104" />
    <rect
       x="249.67"
       y="185.82001"
       width="3.75"
       height="3.75"
       style="fill:#e0e0e0"
       id="rect106" />
    <rect
       x="253.53999"
       y="189.57001"
       width="3.02"
       height="10.27"
       style="fill:#e0e0e0"
       id="rect108" />
    <rect
       x="252.48"
       y="175.72"
       width="3.8299999"
       height="3.8299999"
       style="fill:#e0e0e0"
       id="rect110" />
    <rect
       x="256.31"
       y="179.53999"
       width="3.96"
       height="3.96"
       style="fill:#e0e0e0"
       id="rect112" />
    <rect
       x="260.34"
       y="183.5"
       width="3.8699999"
       height="5.5900002"
       style="fill:#e0e0e0"
       id="rect114" />
    <rect
       x="223.2"
       y="76.330002"
       width="17.42"
       height="17.42"
       style="fill:#f0f0f0"
       id="rect116" />
    <rect
       x="221.35001"
       y="78.849998"
       width="21.129999"
       height="12.2"
       style="fill:#f0f0f0"
       id="rect118" />
    <rect
       x="227.34"
       y="68.699997"
       width="9.1300001"
       height="5.6199999"
       style="fill:#f0f0f0"
       id="rect120" />
    <rect
       x="226.03999"
       y="69.879997"
       width="11.73"
       height="3.01"
       style="fill:#f0f0f0"
       id="rect122" />
    <rect
       x="242.42999"
       y="76.330002"
       width="2.3599999"
       height="2.3599999"
       style="fill:#f0f0f0"
       id="rect124" />
    <rect
       x="244.86"
       y="69.879997"
       width="1.9"
       height="6.4499998"
       style="fill:#f0f0f0"
       id="rect126" />
    <rect
       x="242.38"
       y="83.510002"
       width="2.4000001"
       height="2.4000001"
       style="fill:#f0f0f0"
       id="rect128" />
    <rect
       x="244.78999"
       y="81.029999"
       width="2.48"
       height="2.48"
       style="fill:#f0f0f0"
       id="rect130" />
    <rect
       x="247.27"
       y="77.510002"
       width="2.4300001"
       height="3.51"
       style="fill:#f0f0f0"
       id="rect132" />
    <rect
       x="219.03"
       y="76.330002"
       width="2.3599999"
       height="2.3599999"
       transform="rotate(180,220.21,77.51)"
       style="fill:#f0f0f0"
       id="rect134" />
    <rect
       x="217.06"
       y="69.879997"
       width="1.9"
       height="6.4499998"
       transform="rotate(180,218.01,73.105)"
       style="fill:#f0f0f0"
       id="rect136" />
    <rect
       x="219.03"
       y="83.510002"
       width="2.4000001"
       height="2.4000001"
       transform="rotate(180,220.235,84.71)"
       style="fill:#f0f0f0"
       id="rect138" />
    <rect
       x="216.55"
       y="81.029999"
       width="2.48"
       height="2.48"
       transform="rotate(180,217.79,82.27)"
       style="fill:#f0f0f0"
       id="rect140" />
    <rect
       x="214.12"
       y="77.510002"
       width="2.4300001"
       height="3.51"
       transform="rotate(180,215.335,79.27)"
       style="fill:#f0f0f0"
       id="rect142" />
    <rect
       x="220.91"
       y="93.650002"
       width="2.3599999"
       height="2.3599999"
       transform="rotate(180,222.09,94.825)"
       style="fill:#f0f0f0"
       id="rect144" />
    <rect
       x="218.94"
       y="96.010002"
       width="1.9"
       height="6.4499998"
       transform="rotate(180,219.89,99.23)"
       style="fill:#f0f0f0"
       id="rect146" />
    <rect
       x="219.00999"
       y="87.300003"
       width="2.4000001"
       height="2.4000001"
       transform="rotate(180,220.215,88.505)"
       style="fill:#f0f0f0"
       id="rect148" />
    <rect
       x="216.53"
       y="89.709999"
       width="2.49"
       height="2.48"
       transform="rotate(180,217.77,90.95)"
       style="fill:#f0f0f0"
       id="rect150" />
    <rect
       x="214.09"
       y="92.190002"
       width="2.4300001"
       height="3.51"
       transform="rotate(180,215.31,93.95)"
       style="fill:#f0f0f0"
       id="rect152" />
    <rect
       x="240.60001"
       y="93.650002"
       width="2.3599999"
       height="2.3599999"
       style="fill:#f0f0f0"
       id="rect154" />
    <rect
       x="243.02"
       y="96.010002"
       width="1.9"
       height="6.4499998"
       style="fill:#f0f0f0"
       id="rect156" />
    <rect
       x="242.36"
       y="87.300003"
       width="2.4000001"
       height="2.4000001"
       style="fill:#f0f0f0"
       id="rect158" />
    <rect
       x="244.75999"
       y="89.709999"
       width="2.49"
       height="2.48"
       style="fill:#f0f0f0"
       id="rect160" />
    <rect
       x="247.28999"
       y="92.190002"
       width="2.4300001"
       height="3.51"
       style="fill:#f0f0f0"
       id="rect162" />
    <rect
       x="68.029999"
       y="83.970001"
       width="10.81"
       height="10.81"
       style="fill:#f0f0f0"
       id="rect164" />
    <rect
       x="66.879997"
       y="85.529999"
       width="13.11"
       height="7.5700002"
       style="fill:#f0f0f0"
       id="rect166" />
    <rect
       x="70.599998"
       y="79.230003"
       width="5.6700001"
       height="3.49"
       style="fill:#f0f0f0"
       id="rect168" />
    <rect
       x="69.790001"
       y="79.970001"
       width="7.2800002"
       height="1.87"
       style="fill:#f0f0f0"
       id="rect170" />
    <rect
       x="79.959999"
       y="83.970001"
       width="1.46"
       height="1.46"
       style="fill:#f0f0f0"
       id="rect172" />
    <rect
       x="81.470001"
       y="79.970001"
       width="1.1799999"
       height="4"
       style="fill:#f0f0f0"
       id="rect174" />
    <rect
       x="79.93"
       y="88.43"
       width="1.49"
       height="1.49"
       style="fill:#f0f0f0"
       id="rect176" />
    <rect
       x="81.419998"
       y="86.879997"
       width="1.54"
       height="1.54"
       style="fill:#f0f0f0"
       id="rect178" />
    <rect
       x="82.959999"
       y="84.699997"
       width="1.51"
       height="2.1800001"
       style="fill:#f0f0f0"
       id="rect180" />
    <rect
       x="65.440002"
       y="83.970001"
       width="1.46"
       height="1.46"
       transform="rotate(180,66.17,84.705)"
       style="fill:#f0f0f0"
       id="rect182" />
    <rect
       x="64.220001"
       y="79.970001"
       width="1.1799999"
       height="4"
       transform="rotate(180,64.805,81.97)"
       style="fill:#f0f0f0"
       id="rect184" />
    <rect
       x="65.440002"
       y="88.43"
       width="1.49"
       height="1.49"
       transform="rotate(180,66.185,89.17)"
       style="fill:#f0f0f0"
       id="rect186" />
    <rect
       x="63.900002"
       y="86.879997"
       width="1.54"
       height="1.54"
       transform="rotate(180,64.67,87.655)"
       style="fill:#f0f0f0"
       id="rect188" />
    <rect
       x="62.389999"
       y="84.699997"
       width="1.51"
       height="2.1800001"
       transform="rotate(180,63.145,85.795)"
       style="fill:#f0f0f0"
       id="rect190" />
    <rect
       x="66.610001"
       y="94.720001"
       width="1.46"
       height="1.46"
       transform="rotate(180,67.335,95.445)"
       style="fill:#f0f0f0"
       id="rect192" />
    <rect
       x="65.379997"
       y="96.18"
       width="1.1799999"
       height="4"
       transform="rotate(180,65.97,98.18)"
       style="fill:#f0f0f0"
       id="rect194" />
    <rect
       x="65.43"
       y="90.779999"
       width="1.49"
       height="1.49"
       transform="rotate(180,66.17,91.525)"
       style="fill:#f0f0f0"
       id="rect196" />
    <rect
       x="63.880001"
       y="92.269997"
       width="1.54"
       height="1.54"
       transform="rotate(180,64.655,93.04)"
       style="fill:#f0f0f0"
       id="rect198" />
    <rect
       x="62.380001"
       y="93.809998"
       width="1.51"
       height="2.1800001"
       transform="rotate(180,63.13,94.905)"
       style="fill:#f0f0f0"
       id="rect200" />
    <rect
       x="78.82"
       y="94.720001"
       width="1.46"
       height="1.46"
       style="fill:#f0f0f0"
       id="rect202" />
    <rect
       x="80.330002"
       y="96.18"
       width="1.1799999"
       height="4"
       style="fill:#f0f0f0"
       id="rect204" />
    <rect
       x="79.919998"
       y="90.779999"
       width="1.49"
       height="1.49"
       style="fill:#f0f0f0"
       id="rect206" />
    <rect
       x="81.410004"
       y="92.269997"
       width="1.54"
       height="1.54"
       style="fill:#f0f0f0"
       id="rect208" />
    <rect
       x="82.980003"
       y="93.809998"
       width="1.51"
       height="2.1800001"
       style="fill:#f0f0f0"
       id="rect210" />
    <rect
       x="48.560001"
       y="186.21001"
       width="37.240002"
       height="26.48"
       style="fill:#e0e0e0"
       id="rect212" />
    <rect
       x="51.900002"
       y="184.16"
       width="30.559999"
       height="30.559999"
       style="fill:#e0e0e0"
       id="rect214" />
    <rect
       x="52.369999"
       y="175.31"
       width="4.0700002"
       height="7.27"
       style="fill:#e0e0e0"
       id="rect216" />
    <rect
       x="77.919998"
       y="175.31"
       width="4.0700002"
       height="7.27"
       style="fill:#e0e0e0"
       id="rect218" />
    <rect
       x="56.439999"
       y="171.28999"
       width="21.469999"
       height="4.1999998"
       style="fill:#e0e0e0"
       id="rect220" />
    <rect
       x="62.700001"
       y="193.38"
       width="8.96"
       height="6.0700002"
       style="fill:#fafafa"
       id="rect222" />
    <rect
       x="65.57"
       y="197.25"
       width="3.21"
       height="9.3199997"
       style="fill:#fafafa"
       id="rect224" />
    <rect
       x="312.19"
       y="109.76"
       width="37.240002"
       height="26.48"
       style="fill:#e0e0e0"
       id="rect226" />
    <rect
       x="315.53"
       y="107.71"
       width="30.559999"
       height="30.559999"
       style="fill:#e0e0e0"
       id="rect228" />
    <rect
       x="316.01001"
       y="98.860001"
       width="4.0700002"
       height="7.27"
       style="fill:#e0e0e0"
       id="rect230" />
    <rect
       x="341.54999"
       y="98.860001"
       width="4.0700002"
       height="7.27"
       style="fill:#e0e0e0"
       id="rect232" />
    <rect
       x="320.07999"
       y="94.839996"
       width="21.469999"
       height="4.1999998"
       style="fill:#e0e0e0"
       id="rect234" />
    <rect
       x="326.32999"
       y="116.93"
       width="8.96"
       height="6.0700002"
       style="fill:#fafafa"
       id="rect236" />
    <rect
       x="329.20001"
       y="120.8"
       width="3.21"
       height="9.3199997"
       style="fill:#fafafa"
       id="rect238" />
    <rect
       x="313.47"
       y="324.76999"
       width="37.240002"
       height="26.48"
       style="fill:#e0e0e0"
       id="rect240" />
    <rect
       x="316.81"
       y="322.72"
       width="30.559999"
       height="30.559999"
       style="fill:#e0e0e0"
       id="rect242" />
    <rect
       x="317.29001"
       y="313.87"
       width="4.0700002"
       height="7.27"
       style="fill:#e0e0e0"
       id="rect244" />
    <rect
       x="342.82999"
       y="313.87"
       width="4.0700002"
       height="7.27"
       style="fill:#e0e0e0"
       id="rect246" />
    <rect
       x="321.35999"
       y="309.85001"
       width="21.469999"
       height="4.1999998"
       style="fill:#e0e0e0"
       id="rect248" />
    <rect
       x="327.60999"
       y="331.94"
       width="8.96"
       height="6.0700002"
       style="fill:#fafafa"
       id="rect250" />
    <rect
       x="330.48999"
       y="335.81"
       width="3.21"
       height="9.3199997"
       style="fill:#fafafa"
       id="rect252" />
    <rect
       x="298.91"
       y="235.28"
       width="20.23"
       height="14.38"
       style="fill:#f0f0f0"
       id="rect254" />
    <rect
       x="300.72"
       y="234.17"
       width="16.6"
       height="16.6"
       style="fill:#f0f0f0"
       id="rect256" />
    <rect
       x="300.98001"
       y="229.36"
       width="2.21"
       height="3.95"
       style="fill:#f0f0f0"
       id="rect258" />
    <rect
       x="314.85001"
       y="229.36"
       width="2.21"
       height="3.95"
       style="fill:#f0f0f0"
       id="rect260" />
    <rect
       x="303.19"
       y="227.17999"
       width="11.66"
       height="2.28"
       style="fill:#f0f0f0"
       id="rect262" />
    <rect
       x="306.59"
       y="239.17"
       width="4.8699999"
       height="3.3"
       style="fill:#ffffff"
       id="rect264" />
    <rect
       x="308.14999"
       y="241.27"
       width="1.75"
       height="5.0599999"
       style="fill:#ffffff"
       id="rect266" />
    <rect
       x="134.06"
       y="82.43"
       width="31.32"
       height="39.310001"
       style="fill:#e0e0e0"
       id="rect268" />
    <rect
       x="127.59"
       y="84.43"
       width="44.27"
       height="21.92"
       style="fill:#e0e0e0"
       id="rect270" />
    <rect
       x="130.17"
       y="101.73"
       width="39.099998"
       height="13.71"
       style="fill:#e0e0e0"
       id="rect272" />
    <rect
       x="139.10001"
       y="118.09"
       width="21.24"
       height="7.4000001"
       style="fill:#e0e0e0"
       id="rect274" />
    <rect
       x="146.89999"
       y="123.03"
       width="5.6300001"
       height="6.0100002"
       style="fill:#e0e0e0"
       id="rect276" />
    <rect
       x="135.32001"
       y="97"
       width="4.71"
       height="4.71"
       style="fill:#fafafa"
       id="rect278" />
    <rect
       x="140.03"
       y="101.89"
       width="4.8200002"
       height="4.8200002"
       style="fill:#fafafa"
       id="rect280" />
    <rect
       x="144.86"
       y="106.72"
       width="5.8200002"
       height="4.3099999"
       style="fill:#fafafa"
       id="rect282" />
    <rect
       x="150.67999"
       y="100.61"
       width="4.3499999"
       height="6.1300001"
       style="fill:#fafafa"
       id="rect284" />
    <rect
       x="155.03"
       y="95.07"
       width="4.3499999"
       height="5.5500002"
       style="fill:#fafafa"
       id="rect286" />
    <rect
       x="159.38"
       y="90.449997"
       width="4.7399998"
       height="4.7399998"
       style="fill:#fafafa"
       id="rect288" />
    <rect
       x="412.51999"
       y="93.550003"
       width="19.42"
       height="24.370001"
       style="fill:#f0f0f0"
       id="rect290" />
    <rect
       x="408.5"
       y="94.790001"
       width="27.450001"
       height="13.59"
       style="fill:#f0f0f0"
       id="rect292" />
    <rect
       x="410.10999"
       y="105.52"
       width="24.24"
       height="8.5"
       style="fill:#f0f0f0"
       id="rect294" />
    <rect
       x="415.64001"
       y="115.66"
       width="13.17"
       height="4.5900002"
       style="fill:#f0f0f0"
       id="rect296" />
    <rect
       x="420.48001"
       y="118.72"
       width="3.49"
       height="3.73"
       style="fill:#f0f0f0"
       id="rect298" />
    <rect
       x="413.29999"
       y="102.58"
       width="2.9200001"
       height="2.9200001"
       style="fill:#ffffff"
       id="rect300" />
    <rect
       x="416.22"
       y="105.62"
       width="2.99"
       height="2.99"
       style="fill:#ffffff"
       id="rect302" />
    <rect
       x="419.20999"
       y="108.61"
       width="3.6099999"
       height="2.6700001"
       style="fill:#ffffff"
       id="rect304" />
    <rect
       x="422.82001"
       y="104.82"
       width="2.7"
       height="3.8"
       style="fill:#ffffff"
       id="rect306" />
    <rect
       x="425.51999"
       y="101.38"
       width="2.7"
       height="3.4400001"
       style="fill:#ffffff"
       id="rect308" />
    <rect
       x="428.22"
       y="98.519997"
       width="2.9400001"
       height="2.9400001"
       style="fill:#ffffff"
       id="rect310" />
    <rect
       x="250.42"
       y="323.79999"
       width="13.67"
       height="17.15"
       style="fill:#f0f0f0"
       id="rect312" />
    <rect
       x="247.59"
       y="324.67001"
       width="19.32"
       height="9.5699997"
       style="fill:#f0f0f0"
       id="rect314" />
    <rect
       x="248.72"
       y="332.22"
       width="17.059999"
       height="5.98"
       style="fill:#f0f0f0"
       id="rect316" />
    <rect
       x="252.62"
       y="339.37"
       width="9.2700005"
       height="3.23"
       style="fill:#f0f0f0"
       id="rect318" />
    <rect
       x="256.01999"
       y="341.51999"
       width="2.46"
       height="2.6199999"
       style="fill:#f0f0f0"
       id="rect320" />
    <rect
       x="250.97"
       y="330.16"
       width="2.0599999"
       height="2.0599999"
       style="fill:#ffffff"
       id="rect322" />
    <rect
       x="253.02"
       y="332.29999"
       width="2.0999999"
       height="2.0999999"
       style="fill:#ffffff"
       id="rect324" />
    <rect
       x="255.13"
       y="334.39999"
       width="2.54"
       height="1.88"
       style="fill:#ffffff"
       id="rect326" />
    <rect
       x="257.67001"
       y="331.73999"
       width="1.9"
       height="2.6800001"
       style="fill:#ffffff"
       id="rect328" />
    <rect
       x="259.57001"
       y="329.32001"
       width="1.9"
       height="2.4200001"
       style="fill:#ffffff"
       id="rect330" />
    <rect
       x="261.47"
       y="327.29999"
       width="2.0699999"
       height="2.0699999"
       style="fill:#ffffff"
       id="rect332" />
  </g>
  <g
     id="freepik--Shadow--inject-3"
     transform="translate(0,-55)">
    <ellipse
       id="freepik--path--inject-3"
       cx="250"
       cy="416.23999"
       rx="193.89"
       ry="11.32"
       style="fill:#f5f5f5" />
  </g>
  <g
     id="freepik--Plant--inject-3"
     transform="translate(0,-55)">
    <path
       d="m 395.18,348.33 c 0,0 6.35,-5.29 11.79,0 5.44,5.29 6.5,38.08 6.5,38.08"
       style="fill:none;stroke:#265c7d;stroke-miterlimit:10"
       id="path337" />
    <path
       d="m 413.92,392.74 c 0,0 -3.74,-38.48 10.34,-54.65"
       style="fill:none;stroke:#265c7d;stroke-miterlimit:10"
       id="path339" />
    <path
       d="m 412.58,388.68 c 0,0 2.88,-43.8 -7.69,-53.51"
       style="fill:none;stroke:#265c7d;stroke-miterlimit:10"
       id="path341" />
    <path
       d="m 413.92,388.68 c 0,0 0.24,-28.94 8.09,-33.44 7.85,-4.5 11.86,10.18 11.86,10.18"
       style="fill:none;stroke:#265c7d;stroke-miterlimit:10"
       id="path343" />
    <path
       d="m 410.82,388.68 c 0,0 1.28,-22.22 -4.81,-30.16 -6.09,-7.94 -12.48,3.4 -12.48,3.4"
       style="fill:none;stroke:#265c7d;stroke-miterlimit:10"
       id="path345" />
    <path
       d="m 412.94,391.66 c 0,0 -3.94,-52 2.57,-60.77"
       style="fill:none;stroke:#265c7d;stroke-miterlimit:10"
       id="path347" />
    <path
       d="m 428.74,359.46 c 0,0 -3.92,1.44 -2.75,4.85 1.17,3.41 13.54,9 13.54,9 0,0 5.18,-4.75 0.42,-12.48 -4.76,-7.73 -11.11,-3.83 -11.21,-1.37 z"
       style="fill:#265c7d"
       id="path349" />
    <path
       d="m 428.74,359.46 c 0,0 -3.92,1.44 -2.75,4.85 1.17,3.41 13.54,9 13.54,9 0,0 5.18,-4.75 0.42,-12.48 -4.76,-7.73 -11.11,-3.83 -11.21,-1.37 z"
       style="opacity:0.5;isolation:isolate;fill:#ffffff"
       id="path351" />
    <path
       d="m 411.72,353 c 0,0 4.17,-0.17 4.4,3.42 0.23,3.59 -9,13.53 -9,13.53 0,0 -6.61,-2.39 -5.19,-11.36 1.42,-8.97 8.75,-7.83 9.79,-5.59 z"
       style="fill:#265c7d"
       id="path353" />
    <path
       d="m 411.72,353 c 0,0 4.17,-0.17 4.4,3.42 0.23,3.59 -9,13.53 -9,13.53 0,0 -6.61,-2.39 -5.19,-11.36 1.42,-8.97 8.75,-7.83 9.79,-5.59 z"
       style="opacity:0.5;isolation:isolate;fill:#ffffff"
       id="path355" />
    <path
       d="m 408.19,335.77 c 0,0 2.78,-0.3 2.55,-2 -0.23,-1.7 -10.8,-6 -17,1 0,0 4,6.86 9.77,7 5.77,0.14 4.68,-6 4.68,-6 z"
       style="fill:#265c7d"
       id="path357" />
    <path
       d="m 408.19,335.77 c 0,0 2.78,-0.3 2.55,-2 -0.23,-1.7 -10.8,-6 -17,1 0,0 4,6.86 9.77,7 5.77,0.14 4.68,-6 4.68,-6 z"
       style="opacity:0.5;isolation:isolate;fill:#ffffff"
       id="path359" />
    <path
       d="m 413.37,331.66 c 0,0 -2.52,1.22 -3.22,-0.34 -0.7,-1.56 6,-10.85 15,-8.17 0,0 0.24,7.94 -4.62,11.07 -4.86,3.13 -7.16,-2.56 -7.16,-2.56 z"
       style="fill:#265c7d"
       id="path361" />
    <path
       d="m 413.37,331.66 c 0,0 -2.52,1.22 -3.22,-0.34 -0.7,-1.56 6,-10.85 15,-8.17 0,0 0.24,7.94 -4.62,11.07 -4.86,3.13 -7.16,-2.56 -7.16,-2.56 z"
       style="opacity:0.5;isolation:isolate;fill:#ffffff"
       id="path363" />
    <path
       d="m 400.21,358.09 c 0,0 1.92,-1.55 -0.15,-2.31 -2.07,-0.76 -12.23,-0.54 -12.34,9.52 0,0 11.83,2 13.3,-1.86 1.47,-3.86 -0.81,-5.35 -0.81,-5.35 z"
       style="fill:#265c7d"
       id="path365" />
    <path
       d="m 400.21,358.09 c 0,0 1.92,-1.55 -0.15,-2.31 -2.07,-0.76 -12.23,-0.54 -12.34,9.52 0,0 11.83,2 13.3,-1.86 1.47,-3.86 -0.81,-5.35 -0.81,-5.35 z"
       style="opacity:0.5;isolation:isolate;fill:#ffffff"
       id="path367" />
    <path
       d="m 424.33,335.52 c 0,0 -1.92,-1.55 0.16,-2.31 2.08,-0.76 12.22,-0.54 12.33,9.53 0,0 -11.83,2 -13.3,-1.87 -1.47,-3.87 0.81,-5.35 0.81,-5.35 z"
       style="fill:#265c7d"
       id="path369" />
    <path
       d="m 424.33,335.52 c 0,0 -1.92,-1.55 0.16,-2.31 2.08,-0.76 12.22,-0.54 12.33,9.53 0,0 -11.83,2 -13.3,-1.87 -1.47,-3.87 0.81,-5.35 0.81,-5.35 z"
       style="opacity:0.5;isolation:isolate;fill:#ffffff"
       id="path371" />
    <path
       d="m 418.08,343.62 c 0,0 -0.17,-1.88 1.35,-1.14 1.52,0.74 6.82,6.45 1.33,11.87 0,0 -7.39,-5.47 -6.06,-8.32 1.33,-2.85 3.38,-2.41 3.38,-2.41 z"
       style="fill:#265c7d"
       id="path373" />
    <path
       d="m 418.08,343.62 c 0,0 -0.17,-1.88 1.35,-1.14 1.52,0.74 6.82,6.45 1.33,11.87 0,0 -7.39,-5.47 -6.06,-8.32 1.33,-2.85 3.38,-2.41 3.38,-2.41 z"
       style="opacity:0.5;isolation:isolate;fill:#ffffff"
       id="path375" />
    <path
       d="m 398.49,346.31 c 0,0 1.15,-1.5 -0.53,-1.69 -1.68,-0.19 -9.2,1.82 -7.45,9.33 0,0 9.17,-0.68 9.56,-3.81 0.39,-3.13 -1.58,-3.83 -1.58,-3.83 z"
       style="fill:#265c7d"
       id="path377" />
    <path
       d="m 398.49,346.31 c 0,0 1.15,-1.5 -0.53,-1.69 -1.68,-0.19 -9.2,1.82 -7.45,9.33 0,0 9.17,-0.68 9.56,-3.81 0.39,-3.13 -1.58,-3.83 -1.58,-3.83 z"
       style="opacity:0.5;isolation:isolate;fill:#ffffff"
       id="path379" />
    <polygon
       points="394.62,382.13 432.86,382.13 429.47,416.57 398.01,416.57 "
       style="fill:#263238"
       id="polygon381" />
    <polygon
       points="394.62,382.13 432.86,382.13 429.47,416.57 398.01,416.57 "
       style="opacity:0.2;isolation:isolate;fill:#ffffff"
       id="polygon383" />
    <rect
       x="392.94"
       y="378.32999"
       width="41.610001"
       height="7.5999999"
       style="fill:#263238"
       id="rect385" />
    <rect
       x="392.94"
       y="378.32999"
       width="41.610001"
       height="7.5999999"
       style="opacity:0.4;isolation:isolate;fill:#ffffff"
       id="rect387" />
  </g>
  <g
     id="freepik--Screens--inject-3"
     transform="translate(0,-55)">
    <rect
       x="336.25"
       y="140.64999"
       width="111.53"
       height="91.739998"
       rx="2.29"
       style="fill:#265c7d"
       id="rect390" />
    <path
       d="m 447.78,142.94 v 87.16 a 2.29,2.29 0 0 1 -2.29,2.29 H 338.54 a 2.29,2.29 0 0 1 -2.29,-2.29 v -87.16 a 2.3,2.3 0 0 1 2.29,-2.29 h 107 a 2.3,2.3 0 0 1 2.24,2.29 z"
       style="opacity:0.6;isolation:isolate;fill:#ffffff"
       id="path392" />
    <rect
       x="338.62"
       y="149.98"
       width="106.78"
       height="79.839996"
       style="fill:#263238"
       id="rect394" />
    <path
       d="m 347.31,159.93 a 0.75,0.75 0 0 0 0.45,0.14 0.73,0.73 0 0 0 0.6,-0.3 0.74,0.74 0 0 0 -0.16,-1.05 l -2.2,-1.63 2.21,-1.63 a 0.75103262,0.75103262 0 1 0 -0.89,-1.21 l -3,2.24 a 0.76,0.76 0 0 0 0,1.21 z"
       style="opacity:0.5;fill:#ffffff"
       id="path396" />
    <path
       d="m 357.47,157.08 -2.21,1.64 a 0.73,0.73 0 0 0 -0.16,1 0.75,0.75 0 0 0 0.6,0.31 0.76,0.76 0 0 0 0.45,-0.15 l 3,-2.24 a 0.74,0.74 0 0 0 0,-1.2 l -3,-2.23 a 0.75,0.75 0 1 0 -0.89,1.2 z"
       style="opacity:0.5;fill:#ffffff"
       id="path398" />
    <path
       d="m 350.69,160 a 0.69,0.69 0 0 0 0.25,0 0.73,0.73 0 0 0 0.7,-0.5 l 1.59,-4.47 a 0.75272837,0.75272837 0 1 0 -1.42,-0.5 l -1.58,4.47 a 0.75,0.75 0 0 0 0.46,1 z"
       style="opacity:0.5;fill:#ffffff"
       id="path400" />
    <path
       d="m 363.2,160.32 h 3.95 a 1,1 0 0 0 0,-2 h -3.95 a 1,1 0 0 0 0,2 z"
       style="opacity:0.5;fill:#ffffff"
       id="path402" />
    <path
       d="m 427.25,216.89 h -61.87 a 1,1 0 0 0 0,2 h 61.87 a 1,1 0 0 0 0,-2 z"
       style="opacity:0.5;fill:#ffffff"
       id="path404" />
    <path
       d="m 440.84,216.89 h -7.65 a 1,1 0 1 0 0,2 h 7.65 a 1,1 0 1 0 0,-2 z"
       style="fill:#ffffff"
       id="path406" />
    <path
       d="m 384,212.56 h 24.91 a 1,1 0 0 0 0,-2 H 384 a 1,1 0 0 0 0,2 z"
       style="fill:#ffffff"
       id="path408" />
    <path
       d="m 427.25,212.56 a 1,1 0 0 0 0,-2 h -14.13 a 1,1 0 0 0 0,2 z"
       style="opacity:0.5;fill:#ffffff"
       id="path410" />
    <path
       d="m 440.84,210.56 h -7.51 a 1,1 0 0 0 0,2 h 7.51 a 1,1 0 0 0 0,-2 z"
       style="opacity:0.5;fill:#ffffff"
       id="path412" />
    <path
       d="M 427.35,204.23 H 394 a 1,1 0 0 0 0,2 h 33.32 a 1,1 0 0 0 0,-2 z"
       style="fill:#ffffff"
       id="path414" />
    <path
       d="m 440.84,204.23 h -7.6 a 1,1 0 0 0 0,2 h 7.6 a 1,1 0 0 0 0,-2 z"
       style="fill:#ffffff"
       id="path416" />
    <path
       d="m 409,198.9 a 1,1 0 0 0 -1,-1 h -34 a 1,1 0 0 0 0,2 h 34 a 1,1 0 0 0 1,-1 z"
       style="opacity:0.5;fill:#ffffff"
       id="path418" />
    <path
       d="m 414.16,197.9 a 1,1 0 0 0 0,2 h 13.18 a 1,1 0 0 0 0,-2 z"
       style="opacity:0.5;fill:#ffffff"
       id="path420" />
    <path
       d="m 440.84,197.9 h -7.51 a 1,1 0 0 0 0,2 h 7.51 a 1,1 0 0 0 0,-2 z"
       style="fill:#ffffff"
       id="path422" />
    <path
       d="m 416,193.57 h 6.54 a 1,1 0 0 0 0,-2 H 416 a 1,1 0 0 0 0,2 z"
       style="fill:#ffffff"
       id="path424" />
    <path
       d="m 427.22,193.57 h 13.62 a 1,1 0 0 0 0,-2 h -13.62 a 1,1 0 0 0 0,2 z"
       style="opacity:0.5;fill:#ffffff"
       id="path426" />
    <path
       d="m 379.35,186.24 a 1,1 0 0 0 -1,-1 H 344 a 1,1 0 0 0 0,2 h 34.32 a 1,1 0 0 0 1.03,-1 z"
       style="fill:#ffffff"
       id="path428" />
    <path
       d="m 383.75,187.24 h 10.09 a 1,1 0 0 0 0,-2 h -10.09 a 1,1 0 0 0 0,2 z"
       style="opacity:0.5;fill:#ffffff"
       id="path430" />
    <path
       d="m 344,180.91 h 13 a 1,1 0 0 0 0,-2 h -13 a 1,1 0 0 0 0,2 z"
       style="opacity:0.5;fill:#ffffff"
       id="path432" />
    <path
       d="m 404.84,179.91 a 1,1 0 0 0 -1,-1 h -40.36 a 1,1 0 0 0 0,2 h 40.36 a 1,1 0 0 0 1,-1 z"
       style="fill:#ffffff"
       id="path434" />
    <path
       d="m 344,174.58 h 23.55 a 1,1 0 0 0 0,-2 H 344 a 1,1 0 0 0 0,2 z"
       style="fill:#ffffff"
       id="path436" />
    <path
       d="m 372,173.58 a 1,1 0 0 0 1,1 h 5.83 a 1,1 0 0 0 0,-2 H 373 a 1,1 0 0 0 -1,1 z"
       style="opacity:0.5;fill:#ffffff"
       id="path438" />
    <path
       d="m 344,168.25 h 27.81 a 1,1 0 0 0 0,-2 H 344 a 1,1 0 0 0 0,2 z"
       style="opacity:0.5;fill:#ffffff"
       id="path440" />
    <path
       d="m 392.51,168.25 h 21.33 a 1,1 0 0 0 0,-2 h -21.33 a 1,1 0 0 0 0,2 z"
       style="fill:#ffffff"
       id="path442" />
    <path
       d="m 400.14,140.65 v 24.86 a 5,5 0 0 1 -5,5 h -58.89 v -27.57 a 2.3,2.3 0 0 1 2.29,-2.29 z"
       style="opacity:0.2;isolation:isolate"
       id="path444" />
    <rect
       x="269.32999"
       y="70.870003"
       width="125.53"
       height="91.739998"
       rx="2.29"
       style="fill:#265c7d"
       id="rect446" />
    <path
       d="m 394.86,73.16 v 87.16 a 2.29,2.29 0 0 1 -2.29,2.29 H 271.62 a 2.28,2.28 0 0 1 -2.29,-2.29 V 73.16 a 2.29,2.29 0 0 1 2.29,-2.29 h 121 a 2.3,2.3 0 0 1 2.24,2.29 z"
       style="opacity:0.6;isolation:isolate;fill:#ffffff"
       id="path448" />
    <rect
       x="271.70001"
       y="80.199997"
       width="120.78"
       height="79.839996"
       style="fill:#263238"
       id="rect450" />
    <path
       d="m 280.39,90.15 a 0.75,0.75 0 0 0 0.45,0.14 0.75,0.75 0 0 0 0.44,-1.35 l -2.21,-1.63 2.21,-1.63 a 0.75103262,0.75103262 0 0 0 -0.89,-1.21 l -3,2.24 a 0.76,0.76 0 0 0 0,1.21 z"
       style="fill:#ffffff"
       id="path452" />
    <path
       d="m 290.54,87.3 -2.2,1.64 a 0.73,0.73 0 0 0 -0.16,1 0.75,0.75 0 0 0 0.6,0.31 0.76,0.76 0 0 0 0.45,-0.15 l 3,-2.24 a 0.72,0.72 0 0 0 0.31,-0.6 0.75,0.75 0 0 0 -0.31,-0.6 l -3,-2.23 a 0.75,0.75 0 1 0 -0.89,1.2 z"
       style="fill:#ffffff"
       id="path454" />
    <path
       d="m 283.77,90.25 a 0.69,0.69 0 0 0 0.25,0 0.74,0.74 0 0 0 0.7,-0.5 l 1.58,-4.47 a 0.73,0.73 0 0 0 -0.45,-0.95 0.75,0.75 0 0 0 -1,0.45 l -1.58,4.47 a 0.75,0.75 0 0 0 0.5,1 z"
       style="fill:#ffffff"
       id="path456" />
    <path
       d="m 296.27,90.54 h 4 a 1,1 0 0 0 0,-2 h -4 a 1,1 0 0 0 0,2 z"
       style="opacity:0.5;fill:#ffffff"
       id="path458" />
    <path
       d="m 347.58,98.47 h 5.34 a 1,1 0 0 0 0,-2 h -5.34 a 1,1 0 0 0 0,2 z"
       style="opacity:0.5;fill:#ffffff"
       id="path460" />
    <path
       d="m 289.7,97.47 a 1,1 0 0 0 1,1 h 50 a 1,1 0 0 0 0,-2 h -50 a 1,1 0 0 0 -1,1 z"
       style="fill:#ffffff"
       id="path462" />
    <path
       d="m 277.11,98.47 h 7.65 a 1,1 0 0 0 0,-2 h -7.65 a 1,1 0 0 0 0,2 z"
       style="opacity:0.5;fill:#ffffff"
       id="path464" />
    <path
       d="m 328.92,104.8 a 1,1 0 0 0 0,-2 H 309 a 1,1 0 0 0 0,2 z"
       style="fill:#ffffff"
       id="path466" />
    <path
       d="m 290.7,104.8 h 14.13 a 1,1 0 0 0 0,-2 H 290.7 a 1,1 0 0 0 0,2 z"
       style="fill:#ffffff"
       id="path468" />
    <path
       d="m 277.11,104.8 h 7.52 a 1,1 0 0 0 0,-2 h -7.52 a 1,1 0 0 0 0,2 z"
       style="opacity:0.5;fill:#ffffff"
       id="path470" />
    <path
       d="m 319.92,110.13 a 1,1 0 0 0 -1,-1 H 290.6 a 1,1 0 0 0 0,2 h 28.32 a 1,1 0 0 0 1,-1 z"
       style="fill:#ffffff"
       id="path472" />
    <path
       d="m 277.11,111.13 h 7.6 a 1,1 0 0 0 0,-2 h -7.6 a 1,1 0 0 0 0,2 z"
       style="opacity:0.5;fill:#ffffff"
       id="path474" />
    <path
       d="m 310,117.46 h 29 a 1,1 0 0 0 0,-2 h -29 a 1,1 0 0 0 0,2 z"
       style="fill:#ffffff"
       id="path476" />
    <path
       d="m 290.62,115.46 a 1,1 0 0 0 0,2 h 13.17 a 1,1 0 0 0 0,-2 z"
       style="fill:#ffffff"
       id="path478" />
    <path
       d="m 277.11,117.46 h 7.51 a 1,1 0 0 0 0,-2 h -7.51 a 1,1 0 0 0 0,2 z"
       style="opacity:0.5;fill:#ffffff"
       id="path480" />
    <path
       d="m 301.92,121.79 h -6.53 a 1,1 0 0 0 0,2 h 6.53 a 1,1 0 0 0 0,-2 z"
       style="fill:#ffffff"
       id="path482" />
    <path
       d="m 290.73,121.79 h -13.62 a 1,1 0 0 0 0,2 h 13.62 a 1,1 0 0 0 0,-2 z"
       style="fill:#ffffff"
       id="path484" />
    <path
       d="m 333.6,129.12 a 1,1 0 0 0 1,1 h 53.32 a 1,1 0 0 0 0,-2 H 334.6 a 1,1 0 0 0 -1,1 z"
       style="fill:#ffffff"
       id="path486" />
    <path
       d="m 319.11,128.12 a 1,1 0 0 0 0,2 h 10.09 a 1,1 0 0 0 0,-2 z"
       style="opacity:0.5;fill:#ffffff"
       id="path488" />
    <path
       d="m 387.92,134.45 h -13 a 1,1 0 0 0 0,2 h 13 a 1,1 0 0 0 0,-2 z"
       style="opacity:0.5;fill:#ffffff"
       id="path490" />
    <path
       d="m 369.48,135.45 a 1,1 0 0 0 -1,-1 h -54.37 a 1,1 0 0 0 0,2 h 54.37 a 1,1 0 0 0 1,-1 z"
       style="fill:#ffffff"
       id="path492" />
    <path
       d="m 387.92,140.78 h -23.55 a 1,1 0 0 0 0,2 h 23.55 a 1,1 0 0 0 0,-2 z"
       style="fill:#ffffff"
       id="path494" />
    <path
       d="m 353.11,140.78 a 1,1 0 0 0 0,2 H 359 a 1,1 0 0 0 0,-2 z"
       style="opacity:0.5;fill:#ffffff"
       id="path496" />
    <path
       d="m 387.92,147.11 h -46.81 a 1,1 0 0 0 0,2 h 46.81 a 1,1 0 0 0 0,-2 z"
       style="fill:#ffffff"
       id="path498" />
    <path
       d="m 320.45,147.11 h -16.34 a 1,1 0 0 0 0,2 h 16.34 a 1,1 0 0 0 0,-2 z"
       style="fill:#ffffff"
       id="path500" />
    <path
       d="m 336.25,110.35 v 52.26 h -64.63 a 2.28,2.28 0 0 1 -2.29,-2.29 V 105.9 h 62.47 a 4.45,4.45 0 0 1 4.45,4.45 z"
       style="opacity:0.2;isolation:isolate"
       id="path502" />
    <rect
       x="183.47"
       y="109.77"
       width="144.53"
       height="91.739998"
       rx="2.29"
       style="fill:#265c7d"
       id="rect504" />
    <rect
       x="183.47"
       y="109.77"
       width="144.53"
       height="91.739998"
       rx="2.29"
       style="opacity:0.6;isolation:isolate;fill:#ffffff"
       id="rect506" />
    <rect
       x="185.85001"
       y="119.09"
       width="139.78"
       height="79.839996"
       style="fill:#263238"
       id="rect508" />
    <path
       d="m 213.62,135.85 h -22.37 a 1,1 0 0 0 0,2 h 22.37 a 1,1 0 0 0 0,-2 z"
       style="fill:#ffffff"
       id="path510" />
    <path
       d="m 213.62,142.09 h -19.37 a 1,1 0 0 0 0,2 h 19.37 a 1,1 0 0 0 0,-2 z"
       style="fill:#ffffff"
       id="path512" />
    <path
       d="m 213.62,148.33 h -22.37 a 1,1 0 0 0 0,2 h 22.37 a 1,1 0 0 0 0,-2 z"
       style="opacity:0.5;fill:#ffffff"
       id="path514" />
    <path
       d="m 213.62,154.57 h -13.37 a 1,1 0 0 0 0,2 h 13.37 a 1,1 0 0 0 0,-2 z"
       style="fill:#ffffff"
       id="path516" />
    <path
       d="m 213.62,160.81 h -22.37 a 1,1 0 0 0 0,2 h 22.37 a 1,1 0 0 0 0,-2 z"
       style="fill:#ffffff"
       id="path518" />
    <path
       d="m 213.62,167.05 h -18.37 a 1,1 0 0 0 0,2 h 18.37 a 1,1 0 0 0 0,-2 z"
       style="fill:#ffffff"
       id="path520" />
    <path
       d="m 213.62,173.29 h -18.37 a 1,1 0 0 0 0,2 h 18.37 a 1,1 0 0 0 0,-2 z"
       style="fill:#ffffff"
       id="path522" />
    <path
       d="m 213.62,179.53 h -20.37 a 1,1 0 0 0 0,2 h 20.37 a 1,1 0 0 0 0,-2 z"
       style="fill:#ffffff"
       id="path524" />
    <path
       d="m 213.62,185.77 h -13.37 a 1,1 0 0 0 0,2 h 13.37 a 1,1 0 0 0 0,-2 z"
       style="opacity:0.5;fill:#ffffff"
       id="path526" />
    <path
       d="m 213.62,129.61 h -16.37 a 1,1 0 0 0 0,2 h 16.37 a 1,1 0 0 0 0,-2 z"
       style="opacity:0.5;fill:#ffffff"
       id="path528" />
    <path
       d="m 213.62,123.37 h -22.37 a 1,1 0 0 0 0,2 h 22.37 a 1,1 0 0 0 0,-2 z"
       style="fill:#ffffff"
       id="path530" />
    <path
       d="m 213.62,192 h -22.37 a 1,1 0 0 0 0,2 h 22.37 a 1,1 0 0 0 0,-2 z"
       style="fill:#ffffff"
       id="path532" />
    <rect
       x="221.25"
       y="135.60001"
       width="4.3699999"
       height="2.5"
       style="opacity:0.5;fill:#ffffff"
       id="rect534" />
    <rect
       x="221.25"
       y="141.84"
       width="4.3699999"
       height="2.5"
       style="opacity:0.5;fill:#ffffff"
       id="rect536" />
    <rect
       x="221.25"
       y="148.08"
       width="4.3699999"
       height="2.5"
       style="opacity:0.5;fill:#ffffff"
       id="rect538" />
    <rect
       x="221.25"
       y="154.32001"
       width="4.3699999"
       height="2.5"
       style="opacity:0.5;fill:#ffffff"
       id="rect540" />
    <rect
       x="221.25"
       y="160.56"
       width="4.3699999"
       height="2.5"
       style="opacity:0.5;fill:#ffffff"
       id="rect542" />
    <rect
       x="221.25"
       y="166.8"
       width="4.3699999"
       height="2.5"
       style="opacity:0.5;fill:#ffffff"
       id="rect544" />
    <rect
       x="221.25"
       y="173.03999"
       width="4.3699999"
       height="2.5"
       style="opacity:0.5;fill:#ffffff"
       id="rect546" />
    <rect
       x="221.25"
       y="179.28"
       width="4.3699999"
       height="2.5"
       style="opacity:0.5;fill:#ffffff"
       id="rect548" />
    <rect
       x="221.25"
       y="185.52"
       width="4.3699999"
       height="2.5"
       style="opacity:0.5;fill:#ffffff"
       id="rect550" />
    <rect
       x="221.25"
       y="129.36"
       width="4.3699999"
       height="2.5"
       style="opacity:0.5;fill:#ffffff"
       id="rect552" />
    <rect
       x="221.25"
       y="123.12"
       width="4.3699999"
       height="2.5"
       style="opacity:0.5;fill:#ffffff"
       id="rect554" />
    <rect
       x="221.25"
       y="191.75999"
       width="4.3699999"
       height="2.5"
       style="opacity:0.5;fill:#ffffff"
       id="rect556" />
    <path
       d="m 248.25,136.85 a 1,1 0 0 0 1,1 h 72.37 a 1,1 0 0 0 0,-2 h -72.37 a 1,1 0 0 0 -1,1 z"
       style="fill:#ffffff"
       id="path558" />
    <path
       d="M 321.62,142.09 H 282 a 1,1 0 0 0 0,2 h 39.63 a 1,1 0 0 0 0,-2 z"
       style="fill:#ffffff"
       id="path560" />
    <path
       d="m 272.58,142.09 h -12.33 a 1,1 0 0 0 0,2 h 12.33 a 1,1 0 0 0 0,-2 z"
       style="opacity:0.5;fill:#ffffff"
       id="path562" />
    <path
       d="m 297.62,148.33 h -55 a 1,1 0 0 0 0,2 h 55 a 1,1 0 0 0 0,-2 z"
       style="fill:#ffffff"
       id="path564" />
    <path
       d="m 231.25,150.33 h 3.9 a 1,1 0 0 0 0,-2 h -3.9 a 1,1 0 0 0 0,2 z"
       style="opacity:0.5;fill:#ffffff"
       id="path566" />
    <path
       d="m 304.62,155.57 a 1,1 0 0 0 -1,-1 h -51 a 1,1 0 0 0 0,2 h 51 a 1,1 0 0 0 1,-1 z"
       style="fill:#ffffff"
       id="path568" />
    <path
       d="m 231.25,156.57 h 14.39 a 1,1 0 0 0 0,-2 h -14.39 a 1,1 0 0 0 0,2 z"
       style="fill:#ffffff"
       id="path570" />
    <path
       d="m 231.25,162.81 h 54.37 a 1,1 0 0 0 0,-2 h -54.37 a 1,1 0 0 0 0,2 z"
       style="fill:#ffffff"
       id="path572" />
    <path
       d="m 266.42,167.05 a 1,1 0 0 0 0,2 h 28.2 a 1,1 0 0 0 0,-2 z"
       style="fill:#ffffff"
       id="path574" />
    <path
       d="m 231.25,169.05 h 24.41 a 1,1 0 1 0 0,-2 h -24.41 a 1,1 0 0 0 0,2 z"
       style="fill:#ffffff"
       id="path576" />
    <path
       d="m 321.62,173.29 h -66.37 a 1,1 0 0 0 0,2 h 66.37 a 1,1 0 0 0 0,-2 z"
       style="fill:#ffffff"
       id="path578" />
    <path
       d="m 321.62,179.53 h -57.37 a 1,1 0 0 0 0,2 h 57.37 a 1,1 0 0 0 0,-2 z"
       style="fill:#ffffff"
       id="path580" />
    <path
       d="m 321.62,185.77 h -11.8 a 1,1 0 0 0 0,2 h 11.8 a 1,1 0 0 0 0,-2 z"
       style="opacity:0.5;fill:#ffffff"
       id="path582" />
    <path
       d="m 301.57,185.77 h -43.32 a 1,1 0 0 0 0,2 h 43.32 a 1,1 0 0 0 0,-2 z"
       style="fill:#ffffff"
       id="path584" />
    <path
       d="m 231.25,131.61 h 46.37 a 1,1 0 0 0 0,-2 h -46.37 a 1,1 0 0 0 0,2 z"
       style="fill:#ffffff"
       id="path586" />
    <path
       d="m 231.25,125.37 h 72.37 a 1,1 0 0 0 0,-2 h -72.37 a 1,1 0 0 0 0,2 z"
       style="fill:#ffffff"
       id="path588" />
    <path
       d="M 298.62,192 H 267.9 a 1,1 0 0 0 0,2 h 30.72 a 1,1 0 0 0 0,-2 z"
       style="fill:#ffffff"
       id="path590" />
    <path
       d="m 259.19,192 h -27.94 a 1,1 0 0 0 0,2 h 27.94 a 1,1 0 0 0 0,-2 z"
       style="opacity:0.5;fill:#ffffff"
       id="path592" />
    <path
       d="m 287.91,131.61 a 1,1 0 0 0 0,-2 h -3.6 a 1,1 0 0 0 0,2 z"
       style="opacity:0.5;fill:#ffffff"
       id="path594" />
    <path
       d="m 244.08,136.85 a 1,1 0 0 0 -1,-1 h -4.83 a 1,1 0 0 0 0,2 h 4.83 a 1,1 0 0 0 1,-1 z"
       style="opacity:0.5;fill:#ffffff"
       id="path596" />
    <path
       d="m 299.22,161.81 a 1,1 0 0 0 -1,-1 h -5.28 a 1,1 0 0 0 0,2 h 5.28 a 1,1 0 0 0 1,-1 z"
       style="opacity:0.5;fill:#ffffff"
       id="path598" />
    <path
       d="m 316.53,156.57 a 1,1 0 0 0 0,-2 h -4.29 a 1,1 0 0 0 0,2 z"
       style="opacity:0.5;fill:#ffffff"
       id="path600" />
    <path
       d="m 247.21,173.29 a 1,1 0 0 0 0,2 h 4.31 a 1,1 0 0 0 0,-2 z"
       style="opacity:0.5;fill:#ffffff"
       id="path602" />
  </g>
  <g
     id="freepik--speech-bubble--inject-3"
     transform="translate(0,-55)">
    <rect
       x="103.13"
       y="159.00999"
       width="39.869999"
       height="24.690001"
       rx="3.4000001"
       style="fill:#265c7d"
       id="rect605" />
    <path
       d="m 129.11,182.45 c 0,0 1.51,6.89 10.31,9.56 0,0 -4.58,-4.14 -3.55,-9.56 z"
       style="fill:#265c7d"
       id="path607" />
    <path
       d="m 108.34,162.9 v 4.15 h -0.43 v -3.77 h -1 v -0.38 z"
       style="fill:#ffffff"
       id="path609" />
    <path
       d="m 109.32,165 c 0,-1.32 0.7,-2.1 1.66,-2.1 0.96,0 1.65,0.78 1.65,2.1 0,1.32 -0.69,2.11 -1.65,2.11 -0.96,0 -1.66,-0.82 -1.66,-2.11 z m 2.88,0 c 0,-1.1 -0.5,-1.71 -1.22,-1.71 -0.72,0 -1.22,0.61 -1.22,1.71 0,1.1 0.49,1.72 1.22,1.72 0.73,0 1.22,-0.64 1.22,-1.72 z"
       style="fill:#ffffff"
       id="path611" />
    <path
       d="m 113.24,165 c 0,-1.32 0.69,-2.1 1.65,-2.1 0.96,0 1.66,0.78 1.66,2.1 0,1.32 -0.7,2.11 -1.66,2.11 -0.96,0 -1.65,-0.82 -1.65,-2.11 z m 2.87,0 c 0,-1.1 -0.49,-1.71 -1.22,-1.71 -0.73,0 -1.22,0.61 -1.22,1.71 0,1.1 0.5,1.72 1.22,1.72 0.72,0 1.22,-0.64 1.22,-1.72 z"
       style="fill:#ffffff"
       id="path613" />
    <path
       d="m 118.3,162.9 v 4.15 h -0.43 v -3.77 h -1 v -0.38 z"
       style="fill:#ffffff"
       id="path615" />
    <path
       d="m 120.43,162.9 v 4.15 H 120 v -3.77 h -1 v -0.38 z"
       style="fill:#ffffff"
       id="path617" />
    <path
       d="m 121.42,165 c 0,-1.32 0.69,-2.1 1.65,-2.1 0.96,0 1.66,0.78 1.66,2.1 0,1.32 -0.7,2.11 -1.66,2.11 -0.96,0 -1.65,-0.82 -1.65,-2.11 z m 2.87,0 c 0,-1.1 -0.5,-1.71 -1.22,-1.71 -0.72,0 -1.22,0.61 -1.22,1.71 0,1.1 0.5,1.72 1.22,1.72 0.72,0 1.22,-0.64 1.22,-1.72 z"
       style="fill:#ffffff"
       id="path619" />
    <path
       d="m 126.48,162.9 v 4.15 h -0.43 v -3.77 h -1 v -0.38 z"
       style="fill:#ffffff"
       id="path621" />
    <path
       d="m 127.46,165 c 0,-1.32 0.7,-2.1 1.65,-2.1 0.95,0 1.66,0.78 1.66,2.1 0,1.32 -0.7,2.11 -1.66,2.11 -0.96,0 -1.65,-0.82 -1.65,-2.11 z m 2.87,0 c 0,-1.1 -0.49,-1.71 -1.22,-1.71 -0.73,0 -1.21,0.61 -1.21,1.71 0,1.1 0.49,1.72 1.21,1.72 0.72,0 1.22,-0.64 1.22,-1.72 z"
       style="fill:#ffffff"
       id="path623" />
    <path
       d="m 131.38,165 c 0,-1.32 0.69,-2.1 1.65,-2.1 0.96,0 1.66,0.78 1.66,2.1 0,1.32 -0.7,2.11 -1.66,2.11 -0.96,0 -1.65,-0.82 -1.65,-2.11 z m 2.87,0 c 0,-1.1 -0.5,-1.71 -1.22,-1.71 -0.72,0 -1.22,0.61 -1.22,1.71 0,1.1 0.5,1.72 1.22,1.72 0.72,0 1.22,-0.64 1.22,-1.72 z"
       style="fill:#ffffff"
       id="path625" />
    <path
       d="m 136.44,162.9 v 4.15 H 136 v -3.77 h -1 v -0.38 z"
       style="fill:#ffffff"
       id="path627" />
    <path
       d="m 138.57,162.9 v 4.15 h -0.42 v -3.77 h -1 v -0.38 z"
       style="fill:#ffffff"
       id="path629" />
    <path
       d="m 107.19,171 c 0,-1.32 0.69,-2.1 1.65,-2.1 0.96,0 1.66,0.78 1.66,2.1 0,1.32 -0.7,2.11 -1.66,2.11 -0.96,0 -1.65,-0.82 -1.65,-2.11 z m 2.87,0 c 0,-1.1 -0.5,-1.71 -1.22,-1.71 -0.72,0 -1.22,0.61 -1.22,1.71 0,1.1 0.5,1.72 1.22,1.72 0.72,0 1.22,-0.64 1.22,-1.72 z"
       style="fill:#ffffff"
       id="path631" />
    <path
       d="m 111.11,171 c 0,-1.32 0.69,-2.1 1.65,-2.1 0.96,0 1.65,0.78 1.65,2.1 0,1.32 -0.69,2.11 -1.65,2.11 -0.96,0 -1.65,-0.82 -1.65,-2.11 z m 2.87,0 c 0,-1.1 -0.5,-1.71 -1.22,-1.71 -0.72,0 -1.22,0.61 -1.22,1.71 0,1.1 0.5,1.72 1.22,1.72 0.72,0 1.24,-0.64 1.24,-1.72 z"
       style="fill:#ffffff"
       id="path633" />
    <path
       d="m 116.16,168.9 v 4.15 h -0.43 v -3.77 h -1 v -0.38 z"
       style="fill:#ffffff"
       id="path635" />
    <path
       d="m 118.3,168.9 v 4.15 h -0.43 v -3.77 h -1 v -0.38 z"
       style="fill:#ffffff"
       id="path637" />
    <path
       d="m 119.28,171 c 0,-1.32 0.7,-2.1 1.66,-2.1 0.96,0 1.65,0.78 1.65,2.1 0,1.32 -0.69,2.11 -1.65,2.11 -0.96,0 -1.66,-0.82 -1.66,-2.11 z m 2.88,0 c 0,-1.1 -0.5,-1.71 -1.22,-1.71 -0.72,0 -1.22,0.61 -1.22,1.71 0,1.1 0.49,1.72 1.22,1.72 0.73,0 1.22,-0.64 1.22,-1.72 z"
       style="fill:#ffffff"
       id="path639" />
    <path
       d="m 124.34,168.9 v 4.15 h -0.43 v -3.77 h -1 v -0.38 z"
       style="fill:#ffffff"
       id="path641" />
    <path
       d="m 125.33,171 c 0,-1.32 0.69,-2.1 1.65,-2.1 0.96,0 1.66,0.78 1.66,2.1 0,1.32 -0.7,2.11 -1.66,2.11 -0.96,0 -1.65,-0.82 -1.65,-2.11 z m 2.87,0 c 0,-1.1 -0.5,-1.71 -1.22,-1.71 -0.72,0 -1.22,0.61 -1.22,1.71 0,1.1 0.5,1.72 1.22,1.72 0.72,0 1.22,-0.64 1.22,-1.72 z"
       style="fill:#ffffff"
       id="path643" />
    <path
       d="m 129.24,171 c 0,-1.32 0.7,-2.1 1.66,-2.1 0.96,0 1.65,0.78 1.65,2.1 0,1.32 -0.7,2.11 -1.65,2.11 -0.95,0 -1.66,-0.82 -1.66,-2.11 z m 2.88,0 c 0,-1.1 -0.5,-1.71 -1.22,-1.71 -0.72,0 -1.22,0.61 -1.22,1.71 0,1.1 0.49,1.72 1.22,1.72 0.73,0 1.22,-0.64 1.22,-1.72 z"
       style="fill:#ffffff"
       id="path645" />
    <path
       d="m 134.3,168.9 v 4.15 h -0.43 v -3.77 h -1 v -0.38 z"
       style="fill:#ffffff"
       id="path647" />
    <path
       d="m 136.44,168.9 v 4.15 H 136 v -3.77 h -1 v -0.38 z"
       style="fill:#ffffff"
       id="path649" />
    <path
       d="m 138.57,168.9 v 4.15 h -0.42 v -3.77 h -1 v -0.38 z"
       style="fill:#ffffff"
       id="path651" />
    <path
       d="m 108.34,174.9 v 4.15 h -0.43 v -3.77 h -1 v -0.38 z"
       style="fill:#ffffff"
       id="path653" />
    <path
       d="m 110.47,174.9 v 4.15 h -0.42 v -3.77 h -1 v -0.38 z"
       style="fill:#ffffff"
       id="path655" />
    <path
       d="m 111.46,177 c 0,-1.32 0.69,-2.1 1.65,-2.1 0.96,0 1.66,0.78 1.66,2.1 0,1.32 -0.7,2.11 -1.66,2.11 -0.96,0 -1.65,-0.82 -1.65,-2.11 z m 2.87,0 c 0,-1.1 -0.49,-1.71 -1.22,-1.71 -0.73,0 -1.22,0.61 -1.22,1.71 0,1.1 0.5,1.72 1.22,1.72 0.72,0 1.22,-0.64 1.22,-1.72 z"
       style="fill:#ffffff"
       id="path657" />
    <path
       d="m 115.38,177 c 0,-1.32 0.69,-2.1 1.65,-2.1 0.96,0 1.66,0.78 1.66,2.1 0,1.32 -0.7,2.11 -1.66,2.11 -0.96,0 -1.65,-0.82 -1.65,-2.11 z m 2.87,0 c 0,-1.1 -0.5,-1.71 -1.22,-1.71 -0.72,0 -1.22,0.61 -1.22,1.71 0,1.1 0.5,1.72 1.22,1.72 0.72,0 1.22,-0.64 1.22,-1.72 z"
       style="fill:#ffffff"
       id="path659" />
    <path
       d="m 120.43,174.9 v 4.15 H 120 v -3.77 h -1 v -0.38 z"
       style="fill:#ffffff"
       id="path661" />
    <path
       d="m 122.57,174.9 v 4.15 h -0.43 v -3.77 h -1 v -0.38 z"
       style="fill:#ffffff"
       id="path663" />
    <path
       d="m 123.56,177 c 0,-1.32 0.69,-2.1 1.65,-2.1 0.96,0 1.66,0.78 1.66,2.1 0,1.32 -0.7,2.11 -1.66,2.11 -0.96,0 -1.65,-0.82 -1.65,-2.11 z m 2.87,0 c 0,-1.1 -0.5,-1.71 -1.22,-1.71 -0.72,0 -1.21,0.58 -1.21,1.71 0,1.13 0.5,1.72 1.22,1.72 0.72,0 1.21,-0.64 1.21,-1.72 z"
       style="fill:#ffffff"
       id="path665" />
    <path
       d="m 127.47,177 c 0,-1.32 0.7,-2.1 1.66,-2.1 0.96,0 1.65,0.78 1.65,2.1 0,1.32 -0.69,2.11 -1.65,2.11 -0.96,0 -1.66,-0.82 -1.66,-2.11 z m 2.88,0 c 0,-1.1 -0.5,-1.71 -1.22,-1.71 -0.72,0 -1.22,0.61 -1.22,1.71 0,1.1 0.49,1.72 1.22,1.72 0.73,0 1.22,-0.64 1.22,-1.72 z"
       style="fill:#ffffff"
       id="path667" />
    <path
       d="m 132.53,174.9 v 4.15 h -0.43 v -3.77 h -1 v -0.38 z"
       style="fill:#ffffff"
       id="path669" />
    <path
       d="m 133.52,177 c 0,-1.32 0.69,-2.1 1.65,-2.1 0.96,0 1.66,0.78 1.66,2.1 0,1.32 -0.7,2.11 -1.66,2.11 -0.96,0 -1.65,-0.82 -1.65,-2.11 z m 2.87,0 c 0,-1.1 -0.5,-1.71 -1.22,-1.71 -0.72,0 -1.17,0.58 -1.17,1.71 0,1.13 0.5,1.72 1.22,1.72 0.72,0 1.17,-0.64 1.17,-1.72 z"
       style="fill:#ffffff"
       id="path671" />
    <path
       d="m 138.57,174.9 v 4.15 h -0.42 v -3.77 h -1 v -0.38 z"
       style="fill:#ffffff"
       id="path673" />
  </g>
  <g
     id="freepik--Character--inject-3"
     transform="translate(0,-55)">
    <path
       d="m 76.23,394.86 27.5,-2.7 v -38.65 h 10.9 v 38.64 l 27.61,2.71 a 5.36,5.36 0 0 1 4.84,5.33 v 4.13 H 71.4 v -4.13 a 5.36,5.36 0 0 1 4.83,-5.33 z"
       style="fill:#263238"
       id="path676" />
    <path
       d="m 76.23,394.86 27.5,-2.7 v -38.65 h 10.9 v 38.64 l 27.61,2.71 a 5.36,5.36 0 0 1 4.84,5.33 v 4.13 H 71.4 v -4.13 a 5.36,5.36 0 0 1 4.83,-5.33 z"
       style="opacity:0.2;isolation:isolate;fill:#ffffff"
       id="path678" />
    <circle
       cx="144.17"
       cy="409.45001"
       r="7.1300001"
       style="fill:#263238"
       id="circle680" />
    <circle
       cx="74.309998"
       cy="409.45001"
       r="7.1300001"
       style="fill:#263238"
       id="circle682" />
    <path
       d="m 106,327.39 h 6.39 a 4.13,4.13 0 0 1 4.13,4.13 v 30.29 h -14.67 v -30.29 a 4.13,4.13 0 0 1 4.15,-4.13 z"
       transform="rotate(180,109.18,344.605)"
       style="fill:#263238"
       id="path684" />
    <path
       d="m 106,327.39 h 6.39 a 4.13,4.13 0 0 1 4.13,4.13 v 30.29 h -14.67 v -30.29 a 4.13,4.13 0 0 1 4.15,-4.13 z"
       transform="rotate(180,109.18,344.605)"
       style="opacity:0.3;isolation:isolate;fill:#ffffff"
       id="path686" />
    <path
       d="m 83.12,267 c 0,0 -2.12,51.52 12.27,60.39 H 79 c 0,0 -12.68,-17.56 -9.1,-60.39 z"
       style="fill:#263238"
       id="path688" />
    <path
       d="m 83.12,267 c 0,0 -2.12,51.52 12.27,60.39 H 79 c 0,0 -12.68,-17.56 -9.1,-60.39 z"
       style="opacity:0.3;isolation:isolate;fill:#ffffff"
       id="path690" />
    <path
       d="m 78.43,320.18 h 63.42 a 5,5 0 0 1 5,5 v 6.16 H 73.43 v -6.16 a 5,5 0 0 1 5,-5 z"
       style="fill:#263238"
       id="path692" />
    <rect
       x="70.370003"
       y="325.76001"
       width="79.550003"
       height="5.5799999"
       rx="2.01"
       style="fill:#263238"
       id="rect694" />
    <rect
       x="70.370003"
       y="325.76001"
       width="79.550003"
       height="5.5799999"
       rx="2.01"
       style="opacity:0.6;isolation:isolate;fill:#ffffff"
       id="rect696" />
    <rect
       x="51.970001"
       y="239.34"
       width="54.09"
       height="38.110001"
       rx="14.58"
       transform="rotate(180,79.01,258.395)"
       style="fill:#263238"
       id="rect698" />
    <g
       id="freepik--group--inject-3">
      <polygon
         points="147.2,389.32 139.25,390.43 138.13,409.35 146.1,408.26 "
         style="fill:#ebb376"
         id="polygon700" />
      <polygon
         points="146.57,400.16 138.63,400.85 139.25,390.43 147.2,389.33 "
         style="opacity:0.2;isolation:isolate"
         id="polygon702" />
      <path
         d="m 138.45,298 -1.94,-12.17 -44.66,-2.67 c 0,0 -4.75,25.33 -1.1,32.08 6.51,12.05 41.62,6 51.89,7.16 -6.14,25.11 -5.54,74.18 -5.54,74.18 l 14.67,1.12 c 0,0 11.29,-52.88 13.57,-78 1.54,-16.93 -12.51,-16.5 -26.89,-21.7 z"
         style="fill:#265c7d"
         id="path704" />
      <polygon
         points="154.52,390.91 135.15,390.01 135.38,397.3 153.01,398.46 "
         style="fill:#265c7d"
         id="polygon706" />
      <polygon
         points="169.55,384.58 161.54,384 156.51,402.28 164.53,402.87 "
         style="fill:#ebb376"
         id="polygon708" />
      <path
         d="m 165.64,403.23 c 0,0 0,0 0,0.06 h 0.06 a 10.07,10.07 0 0 0 2,0.84 2.2,2.2 0 0 0 1.56,0 1,1 0 0 0 0.5,-0.95 0.73,0.73 0 0 0 -0.27,-0.63 3.24,3.24 0 0 0 -2.25,-0.06 2.89,2.89 0 0 0 1.18,-1.63 0.69,0.69 0 0 0 -0.48,-0.72 0.92,0.92 0 0 0 -0.81,0 c -1,0.54 -1.35,2.78 -1.38,2.9 v 0 h -0.14 a 0.24,0.24 0 0 0 0.03,0.19 z m 0.6,-0.45 -0.18,0.06 c 0.19,-0.74 0.59,-1.95 1.18,-2.26 a 0.54,0.54 0 0 1 0.43,-0.06 h 0.08 c 0.25,0.1 0.29,0.25 0.27,0.36 -0.02,0.57 -1.02,1.47 -1.78,1.9 z m 0,0.42 c 1.06,-0.32 2.53,-0.61 3,-0.27 a 0.34,0.34 0 0 1 0.13,0.3 0.67,0.67 0 0 1 -0.31,0.61 c -0.45,0.25 -1.48,0.01 -2.79,-0.64 z"
         style="fill:#265c7d"
         id="path710" />
      <polygon
         points="166.68,395.04 158.76,394.07 161.54,384 169.55,384.59 "
         style="opacity:0.2;isolation:isolate"
         id="polygon712" />
      <path
         d="m 172.27,393.75 -14.12,-4.15 c 0,0 8.43,-47.58 17,-64.08 -0.64,-0.21 -1.49,-0.48 -2.54,-0.79 -1.89,-0.57 -4.4,-1.28 -7.35,-2.1 -20.52,-5.69 -62.11,-16.36 -62.11,-16.36 l 19,-17.73 c 0,0 75.68,11.54 77.25,31.48 0.73,9.59 -27.13,73.73 -27.13,73.73 z"
         style="fill:#265c7d"
         id="path714" />
      <polygon
         points="176.38,387.65 157.62,382.74 156.33,389.92 173.33,394.72 "
         style="fill:#265c7d"
         id="polygon716" />
      <path
         d="m 172.59,324.73 c -1.89,-0.57 -4.4,-1.28 -7.35,-2.1 0.59,-4.84 0.6,-10.39 -1.73,-13.22 -4.63,-5.64 -16.54,-9 -23.32,-10.15 -5.67,-1 -24.72,-3 -24.72,-3 0,0 24.72,-2.37 50,5 12.53,3.66 10.05,15.87 7.12,23.47 z"
         style="opacity:0.2;isolation:isolate"
         id="path718" />
      <polygon
         points="154.52,390.91 135.15,390.01 135.38,397.3 153.01,398.46 "
         style="opacity:0.2;fill:#ffffff"
         id="polygon720" />
      <polygon
         points="176.38,387.65 157.62,382.74 156.33,389.92 173.33,394.72 "
         style="opacity:0.2;fill:#ffffff"
         id="polygon722" />
      <path
         d="m 165.32,402.06 -8.69,-2.43 a 0.58,0.58 0 0 0 -0.72,0.37 v 0 l -2.34,6.76 a 1.41,1.41 0 0 0 1,1.74 c 3,0.8 4.53,1 8.36,2.06 a 75.7,75.7 0 0 0 10.28,2.54 c 3.35,0.38 3.63,-2.94 2.25,-3.4 -3.28,-1.1 -7.2,-4.51 -8.91,-6.84 a 2.27,2.27 0 0 0 -1.23,-0.8 z"
         style="fill:#263238"
         id="path724" />
      <path
         d="m 146.89,408.28 c 0,0 0.17,0 0.17,0 0,0 0.18,0.06 0.2,0.08 0.02,0.02 0,0 0,0.05 h 0.07 a 9.91,9.91 0 0 0 2.09,0.41 2.12,2.12 0 0 0 1.53,-0.3 1,1 0 0 0 0.29,-1 0.73,0.73 0 0 0 -0.4,-0.56 3.33,3.33 0 0 0 -2.23,0.41 2.86,2.86 0 0 0 0.79,-1.83 0.75,0.75 0 0 0 -0.68,-0.61 1.16,1.16 0 0 0 -0.89,0.21 c -0.84,0.72 -1,3 -1,3.13 v 0 z m 0.87,-0.46 -0.17,0.09 a 4,4 0 0 1 0.68,-2.46 0.52,0.52 0 0 1 0.41,-0.14 h 0.09 c 0.26,0.05 0.33,0.18 0.34,0.29 a 3.86,3.86 0 0 1 -1.35,2.22 z m 0.11,0.39 c 1,-0.53 2.34,-1.12 2.86,-0.88 a 0.32,0.32 0 0 1 0.19,0.27 0.69,0.69 0 0 1 -0.17,0.66 c -0.41,0.35 -1.46,0.33 -2.88,-0.05 z"
         style="fill:#265c7d"
         id="path726" />
      <path
         d="m 146.7,407.3 -9,-0.56 a 0.57,0.57 0 0 0 -0.63,0.5 v 0 l -0.88,7.1 a 1.42,1.42 0 0 0 1.31,1.51 c 3.14,0.14 4.65,0.05 8.61,0.27 a 74.65,74.65 0 0 0 10.58,0.34 c 3.35,-0.33 2.94,-3.63 1.5,-3.79 -3.44,-0.39 -8,-2.92 -10.14,-4.83 a 2.25,2.25 0 0 0 -1.35,-0.54 z"
         style="fill:#263238"
         id="path728" />
      <path
         d="m 156.66,252.57 c 0,0 2.52,13.66 7.06,16.29 4.54,2.63 35.94,-16.13 35.94,-16.13 l -2.63,-5.3 c 0,0 -26.29,7.1 -26.54,7.14 -0.25,0.04 -1,-6 -1,-6 z"
         style="fill:#263238"
         id="path730" />
      <path
         d="m 166.46,231.09 c 2.07,2.56 5,21.48 5,21.48 l -15.42,3.59 -3.34,-9.58 z"
         style="fill:#265c7d"
         id="path732" />
      <path
         d="m 166.46,231.09 c 2.07,2.56 5,21.48 5,21.48 l -15.42,3.59 -3.34,-9.58 z"
         style="opacity:0.4;isolation:isolate;fill:#ffffff"
         id="path734" />
      <path
         d="m 87.43,298.93 51.75,-8.61 c 0,0 3.24,-30.74 27.28,-59.23 0,0 -8.35,-18.24 -38.05,-15.71 -29.7,2.53 -40.98,83.55 -40.98,83.55 z"
         style="fill:#265c7d"
         id="path736" />
      <path
         d="m 87.43,298.93 51.75,-8.61 c 0,0 3.24,-30.74 27.28,-59.23 0,0 -8.35,-18.24 -38.05,-15.71 -29.7,2.53 -40.98,83.55 -40.98,83.55 z"
         style="opacity:0.6;isolation:isolate;fill:#ffffff"
         id="path738" />
      <path
         d="m 127.71,241.54 c 0,0 -0.52,14.22 1.06,15 1.58,0.78 31.47,-10.06 36.21,-10.85 4.74,-0.79 15.61,3.36 15.61,3.36 l 1,6.49 c 0,0 -9.68,-0.19 -15.12,-2.84 0,0 -34.92,20.88 -42.44,19.69 C 116.51,271.2 113.93,243 113.93,243 Z"
         style="fill:#ebb376"
         id="path740" />
      <path
         d="m 127.71,246.58 c 0,0 0.11,8.36 1.85,9 1.74,0.64 27.6,-8.47 27.6,-8.47 l 4.09,9.47 c 0,0 -32.68,21.09 -39,15.9 -6.32,-5.19 -7.91,-23.78 -7.91,-23.78 z"
         style="fill:#263238"
         id="path742" />
      <path
         d="m 123,218.57 c 9.3,-1 5.94,31.93 5.94,31.93 l -15.63,2.23 c 0,0 -6.69,-32.44 9.69,-34.16 z"
         style="fill:#265c7d"
         id="path744" />
      <path
         d="m 123,218.57 c 9.3,-1 5.94,31.93 5.94,31.93 l -15.63,2.23 c 0,0 -6.69,-32.44 9.69,-34.16 z"
         style="opacity:0.4;isolation:isolate;fill:#ffffff"
         id="path746" />
      <path
         d="m 137.75,216.19 c 0,0 -0.31,14.46 8.55,15.93 8.86,1.47 9.79,-10.3 9.79,-10.3 0,0 -5.96,-6.42 -18.34,-5.63 z"
         style="fill:#263238"
         id="path748" />
      <path
         d="m 160,224.19 a 7.14,7.14 0 0 0 -4.75,0 6.92,6.92 0 0 1 -6.65,5.34 12.08,12.08 0 0 1 -2.28,-0.1 c -7.74,-1.06 -6.89,-12.57 -6.89,-12.57 a 13.81,13.81 0 0 0 8.06,-1.94 v 0 a 17.86,17.86 0 0 0 5.28,-4.72 z"
         style="fill:#ebb376"
         id="path750" />
      <path
         d="m 160,224.19 a 7.14,7.14 0 0 0 -4.75,0 6.92,6.92 0 0 1 -6.65,5.34 c -2,-4.93 -1.73,-10.58 -1.11,-14.61 v 0 a 17.86,17.86 0 0 0 5.28,-4.72 z"
         style="opacity:0.2;isolation:isolate"
         id="path752" />
      <path
         d="m 166,201.84 c -3.45,2.34 -1.88,6.3 5.92,12.51 3.17,-4.11 3.69,-12.09 1.18,-14.09 -2.51,-2 -4.1,-0.45 -7.1,1.58 z"
         style="fill:#263238"
         id="path754" />
      <path
         d="m 151.19,208.26 c 0.37,8.43 0.17,13.38 4.34,17.77 6.28,6.61 16.74,2.93 18.89,-5.44 1.93,-7.52 1,-20 -7.18,-23.53 a 11.5,11.5 0 0 0 -16.05,11.2 z"
         style="fill:#ebb376"
         id="path756" />
      <path
         d="m 163.72,210.79 c 0,0.68 0.35,1.24 0.79,1.25 0.44,0.01 0.82,-0.54 0.83,-1.22 0.01,-0.68 -0.34,-1.25 -0.78,-1.26 -0.44,-0.01 -0.78,0.55 -0.84,1.23 z"
         style="fill:#263238"
         id="path758" />
      <path
         d="m 171.51,210.93 c 0,0.68 0.34,1.25 0.79,1.25 0.45,0 0.82,-0.53 0.84,-1.23 0.02,-0.7 -0.35,-1.24 -0.8,-1.25 -0.45,-0.01 -0.82,0.54 -0.83,1.23 z"
         style="fill:#263238"
         id="path760" />
      <path
         d="m 169,211.21 a 24.08,24.08 0 0 0 3.18,5.91 4,4 0 0 1 -3.29,0.56 z"
         style="fill:#d58745"
         id="path762" />
      <path
         d="m 175,206.41 a 0.42,0.42 0 0 1 -0.37,0.21 3.19,3.19 0 0 0 -2.7,1.09 0.4,0.4 0 0 1 -0.56,0.08 0.39,0.39 0 0 1 -0.09,-0.55 4,4 0 0 1 3.39,-1.42 0.39,0.39 0 0 1 0.38,0.41 v 0 a 0.37,0.37 0 0 1 -0.05,0.18 z"
         style="fill:#263238"
         id="path764" />
      <path
         d="m 167,207.92 a 0.41,0.41 0 0 1 -0.42,-0.1 3.19,3.19 0 0 0 -2.74,-1 0.42,0.42 0 0 1 -0.48,-0.32 0.4,0.4 0 0 1 0.31,-0.47 4,4 0 0 1 3.48,1.19 0.42,0.42 0 0 1 0,0.57 v 0 z"
         style="fill:#263238"
         id="path766" />
      <path
         d="m 154.67,200.86 c 3.91,1.42 3.36,5.65 -2.69,13.57 -4.07,-3.21 -6.54,-10.82 -4.58,-13.37 1.96,-2.55 3.85,-1.43 7.27,-0.2 z"
         style="fill:#263238"
         id="path768" />
      <path
         d="m 147.07,214.93 a 8,8 0 0 0 3.73,4.86 c 2.44,1.38 4.33,-0.65 4.22,-3.3 -0.11,-2.4 -1.51,-6 -4.23,-6.3 -2.72,-0.3 -4.39,2.22 -3.72,4.74 z"
         style="fill:#ebb376"
         id="path770" />
      <path
         d="m 162.53,219.08 c 0,0 1.46,2.76 5.54,2.63"
         style="fill:none;stroke:#263238;stroke-width:0.526291px;stroke-linecap:round;stroke-linejoin:round"
         id="path772" />
      <path
         d="m 155.57,203.79 c 0,0 3.32,0.17 4.85,2.27 a 4.69,4.69 0 0 0 0.83,-3.86 c 0,0 4,0.49 5.79,3.27 a 6.1,6.1 0 0 0 0.6,-3.27 5.32,5.32 0 0 1 1.21,3.27 c 0,0 3.06,-1.94 2.66,-3.76 a 8.54,8.54 0 0 1 1.63,3.16 c 0,0 2,-0.69 1.57,-4.25 a 6.4,6.4 0 0 1 1.43,2.58 c 0,0 2.62,-7.43 -7.29,-11.58 -9.91,-4.15 -21.29,0.77 -21.09,9 0.2,8.23 7.81,3.17 7.81,3.17 z"
         style="fill:#263238"
         id="path774" />
      <path
         d="m 168.07,212.18 c 0,2.18 -1.48,3.95 -3.29,3.95 -1.81,0 -3.3,-1.77 -3.3,-3.95 0,-2.18 1.48,-4 3.3,-4 1.82,0 3.29,1.82 3.29,4 z"
         style="fill:none;stroke:#263238;stroke-width:0.526291px;stroke-linecap:round;stroke-linejoin:round"
         id="path776" />
      <path
         d="m 177.08,212 c 0,2.18 -1.47,4 -3.29,4 -1.82,0 -3.3,-1.77 -3.3,-4 0,-2.23 1.48,-3.95 3.3,-3.95 1.82,0 3.29,1.81 3.29,3.95 z"
         style="fill:none;stroke:#263238;stroke-width:0.526291px;stroke-linecap:round;stroke-linejoin:round"
         id="path778" />
      <path
         d="m 168.07,212.18 a 1.87,1.87 0 0 1 2.42,-0.14"
         style="fill:none;stroke:#263238;stroke-width:0.526291px;stroke-linecap:round;stroke-linejoin:round"
         id="path780" />
      <line
         x1="161.48"
         y1="212.17999"
         x2="153.46001"
         y2="211.49001"
         style="fill:none;stroke:#263238;stroke-width:0.526291px;stroke-linecap:round;stroke-linejoin:round"
         id="line782" />
      <path
         d="m 235.89,252.57 v 2.65 c 0,0.79 -1.36,1.35 -2.15,1.35 H 172 c -0.79,0 -2.06,-0.56 -2.06,-1.35 v -2.65 z"
         style="fill:#263238"
         id="path784" />
      <path
         d="m 235.89,252.57 v 2.65 c 0,0.79 -1.36,1.35 -2.15,1.35 H 172 c -0.79,0 -2.06,-0.56 -2.06,-1.35 v -2.65 z"
         style="opacity:0.6;isolation:isolate;fill:#ffffff"
         id="path786" />
      <path
         d="m 235.89,252.57 v 2.65 c 0,0.79 -1.36,1.35 -2.15,1.35 H 193 c -0.79,0 -2.1,-0.56 -2.1,-1.35 v -2.65 z"
         style="opacity:0.2;isolation:isolate"
         id="path788" />
      <path
         d="m 245.8,220.09 -7.35,33.47 a 2.61,2.61 0 0 1 -2.39,2 h -40.19 a 1.75,1.75 0 0 1 -1.51,-2.24 l 7.35,-33.12 a 2.3,2.3 0 0 1 2.39,-1.64 h 40.18 c 1.08,0.01 1.72,0.44 1.52,1.53 z"
         style="fill:#263238"
         id="path790" />
      <path
         d="m 245.8,220.09 -7.35,33.47 a 2.61,2.61 0 0 1 -2.39,2 h -40.19 a 1.75,1.75 0 0 1 -1.51,-2.24 l 7.35,-33.12 a 2.3,2.3 0 0 1 2.39,-1.64 h 40.18 c 1.08,0.01 1.72,0.44 1.52,1.53 z"
         style="opacity:0.6;isolation:isolate;fill:#ffffff"
         id="path792" />
      <path
         d="m 245.8,220.09 -7.35,33.47 a 2.61,2.61 0 0 1 -2.39,2 h -38.82 a 1.75,1.75 0 0 1 -1.52,-2.24 l 7.36,-33.12 a 2.3,2.3 0 0 1 2.39,-1.64 h 38.81 c 1.08,0.01 1.72,0.44 1.52,1.53 z"
         style="opacity:0.4;isolation:isolate;fill:#ffffff"
         id="path794" />
      <path
         d="m 222.16,241.54 c 1.87,0 3.79,-2 4.28,-4.48 0.49,-2.48 -0.64,-4.49 -2.52,-4.49 a 2.91,2.91 0 0 0 -1,0.2 5.74,5.74 0 0 1 -3.19,4.09 1.46,1.46 0 0 0 -0.05,0.2 c -0.53,2.47 0.6,4.48 2.48,4.48 z"
         style="opacity:0.2;isolation:isolate"
         id="path796" />
    </g>
    <polygon
       points="283.87,256.57 264.62,256.57 265.41,254.57 275.96,252.57 276.88,241.54 269.89,239.88 271.34,229.07 280.7,238.43 "
       style="fill:#263238"
       id="polygon799" />
    <polygon
       points="265.41,254.57 275.96,252.57 276.88,241.54 275.97,241.32 269.89,239.88 271.34,229.07 280.7,238.43 283.87,256.57 264.62,256.57 "
       style="opacity:0.6;isolation:isolate;fill:#ffffff"
       id="polygon801" />
    <polygon
       points="269.89,239.88 271.34,229.07 279.4,237.13 275.97,241.32 "
       style="opacity:0.2;isolation:isolate"
       id="polygon803" />
    <path
       d="M 270.25,244.78 H 259.5 a 0.7,0.7 0 0 1 -0.71,-0.82 L 265,197.85 a 1,1 0 0 1 1,-0.85 h 10.75 a 0.7,0.7 0 0 1 0.72,0.82 L 271.19,244 a 1,1 0 0 1 -0.94,0.78 z"
       style="fill:#263238"
       id="path805" />
    <path
       d="M 270.25,244.78 H 259.5 a 0.7,0.7 0 0 1 -0.71,-0.82 L 265,197.85 a 1,1 0 0 1 1,-0.85 h 10.75 a 0.7,0.7 0 0 1 0.72,0.82 L 271.19,244 a 1,1 0 0 1 -0.94,0.78 z"
       style="opacity:0.6;isolation:isolate;fill:#ffffff"
       id="path807" />
    <path
       d="m 267.25,244.78 h -7.75 a 0.7,0.7 0 0 1 -0.71,-0.82 L 265,197.85 a 1,1 0 0 1 1,-0.85 h 7.75 a 0.7,0.7 0 0 1 0.72,0.82 L 268.19,244 a 1,1 0 0 1 -0.94,0.78 z"
       style="opacity:0.4;isolation:isolate;fill:#ffffff"
       id="path809" />
    <polygon
       points="265.53,198.48 273.78,198.48 267.71,243.33 259.46,243.33 "
       style="fill:#265c7d"
       id="polygon811" />
    <polygon
       points="179.36,263.33 187.49,263.33 196.5,416.57 190.37,416.57 "
       style="fill:#263238"
       id="polygon813" />
    <polygon
       points="179.9,270.94 179.36,263.57 187.49,263.57 187.93,270.94 196.5,416.57 190.37,416.57 "
       style="opacity:0.4;isolation:isolate;fill:#ffffff"
       id="polygon815" />
    <polygon
       points="179.36,263.57 187.49,263.57 187.93,270.57 179.9,270.57 "
       style="opacity:0.2;isolation:isolate"
       id="polygon817" />
    <polygon
       points="234.33,263.33 242.46,263.33 241.46,416.57 235.33,416.57 "
       style="fill:#263238"
       id="polygon819" />
    <polygon
       points="241.46,416.57 235.33,416.57 234.49,288.3 234.33,263.57 242.46,263.57 242.3,288.3 "
       style="opacity:0.5;isolation:isolate;fill:#ffffff"
       id="polygon821" />
    <polygon
       points="234.49,288.57 234.33,263.57 242.46,263.57 242.3,288.57 "
       style="opacity:0.2;isolation:isolate"
       id="polygon823" />
    <polygon
       points="289.36,263.33 297.49,263.33 306.5,416.57 300.37,416.57 "
       style="fill:#263238"
       id="polygon825" />
    <polygon
       points="289.9,270.94 289.36,263.57 297.49,263.57 297.93,270.94 306.5,416.57 300.37,416.57 "
       style="opacity:0.5;isolation:isolate;fill:#ffffff"
       id="polygon827" />
    <polygon
       points="289.36,263.57 297.49,263.57 297.93,270.57 289.9,270.57 "
       style="opacity:0.2;isolation:isolate"
       id="polygon829" />
    <polygon
       points="129.29,263.33 137.42,263.33 126.42,416.57 120.29,416.57 "
       style="fill:#263238"
       id="polygon831" />
    <polygon
       points="126.41,416.57 120.29,416.57 128.85,270.94 129.29,263.57 137.42,263.57 136.88,270.94 "
       style="opacity:0.5;isolation:isolate;fill:#ffffff"
       id="polygon833" />
    <polygon
       points="136.88,270.57 128.85,270.57 129.29,263.57 137.42,263.57 "
       style="opacity:0.2;isolation:isolate"
       id="polygon835" />
    <path
       d="M 122.85,259.49 H 303.93 V 265 a 2.16,2.16 0 0 1 -2.16,2.16 H 125 A 2.16,2.16 0 0 1 122.84,265 v -5.51 z"
       style="fill:#265c7d"
       id="path837" />
    <rect
       x="122.85"
       y="259.48999"
       width="181.08"
       height="3.8399999"
       style="opacity:0.2;isolation:isolate"
       id="rect839" />
    <path
       d="M 307.73,260.49 H 119.06 a 2.17,2.17 0 0 1 -2.17,-2.16 v 0 a 2.17,2.17 0 0 1 2.17,-2.17 h 188.67 a 2.17,2.17 0 0 1 2.16,2.17 v 0 a 2.16,2.16 0 0 1 -2.16,2.16 z"
       style="fill:#265c7d"
       id="path841" />
  </g>
</svg>
